<?xml version="1.0" encoding="utf-8"?>
<!-- Generator: Adobe Illustrator 26.1.0, SVG Export Plug-In . SVG Version: 6.00 Build 0)  -->
<svg version="1.1" id="Layer_1" xmlns="http://www.w3.org/2000/svg" xmlns:xlink="http://www.w3.org/1999/xlink" x="0px" y="0px"
	 viewBox="0 0 14 14" style="enable-background:new 0 0 14 14;" xml:space="preserve">
<style type="text/css">
	.st0{fill:#241E1A;}
</style>
<g>
	<path class="st0" d="M6.41064,2.64005L2.97723,10.0048H4.4118l0.85248-1.82861h3.47144L9.5882,10.0048h1.43359L7.58936,2.64005
		H6.41064z M5.87048,6.87589L7,4.45304l1.12952,2.42285H5.87048z"/>
	<path class="st0" d="M13.06934,3.50879l-1.08398,0.62402C12.48535,5.00098,12.75,5.99219,12.75,7c0,3.1709-2.5791,5.75-5.75,5.75
		c-1.17731,0-2.29694-0.35718-3.24664-1.01086l0.79932-0.79938h-2.5318v2.53186l0.83728-0.83728C4.05316,13.51599,5.48792,14,7,14
		c3.85938,0,7-3.14062,7-7C14,5.77393,13.67773,4.56641,13.06934,3.50879z"/>
	<path class="st0" d="M1.25,7c0-3.17041,2.57959-5.75,5.75-5.75c1.17761,0,2.29767,0.35742,3.24683,1.01074l-0.7995,0.7995h2.5318
		V0.52838l-0.83698,0.83704C9.94751,0.48358,8.51263,0,7,0C3.14014,0,0,3.14014,0,7c0,1.23438,0.32617,2.44824,0.94287,3.51074
		l1.08105-0.62695C1.51758,9.01172,1.25,8.01465,1.25,7z"/>
</g>
</svg>
