<?xml version="1.0" encoding="UTF-8"?>
<svg enable-background="new 0 0 14 14" version="1.1" viewBox="0 0 14 14" xml:space="preserve" xmlns="http://www.w3.org/2000/svg">
<style type="text/css">
	.st0{fill:#f3e9e1;}
</style>
<path class="st0" d="m6.9249 5.838-0.938 0.48767c-0.10034-0.20814-0.22307-0.3542-0.36867-0.43774-0.14607-0.08306-0.2814-0.12506-0.40647-0.12506-0.62487 0-0.93753 0.41253-0.93753 1.2376 0 0.37473 0.07933 0.6748 0.23753 0.89973s0.392 0.33787 0.7 0.33787c0.40833 0 0.6958-0.2002 0.86287-0.60013l0.8624 0.43773c-0.1834 0.34207-0.43773 0.6104-0.76253 0.8064s-0.6832 0.294-1.0747 0.294c-0.62487 0-1.1293-0.19133-1.5125-0.57493-0.38314-0.38314-0.57494-0.91654-0.57494-1.5997 0-0.66687 0.19367-1.1956 0.581-1.5876 0.38734-0.39153 0.87687-0.58753 1.4691-0.58753 0.8666-9.4e-4 1.4873 0.33646 1.8625 1.0117zm4.0371 0-0.92493 0.48767c-0.09987-0.20814-0.22307-0.3542-0.36867-0.43774-0.14607-0.08306-0.28607-0.12506-0.4186-0.12506-0.62487 0-0.938 0.41253-0.938 1.2376 0 0.37473 0.07933 0.6748 0.23753 0.89973s0.39153 0.33787 0.7 0.33787c0.40787 0 0.6958-0.2002 0.86193-0.60013l0.875 0.43773c-0.19133 0.34207-0.44987 0.6104-0.77467 0.8064-0.32527 0.196-0.679 0.294-1.0626 0.294-0.63373 0-1.1396-0.19133-1.5185-0.57493-0.37986-0.38314-0.56933-0.91654-0.56933-1.5997 0-0.66687 0.19367-1.1956 0.58147-1.5876 0.38733-0.39153 0.87687-0.58753 1.4686-0.58753 0.86753-9.4e-4 1.4845 0.33646 1.8508 1.0117z"/>
<path class="st0" d="m7 1.25c3.1706 0 5.75 2.5794 5.75 5.75s-2.5794 5.75-5.75 5.75-5.75-2.5794-5.75-5.75 2.5794-5.75 5.75-5.75m0-1.25c-3.866 0-7 3.134-7 7s3.134 7 7 7 7-3.134 7-7-3.134-7-7-7z"/>
</svg>
