<?xml version="1.0" encoding="utf-8"?>
<!-- Generator: Adobe Illustrator 25.2.0, SVG Export Plug-In . SVG Version: 6.00 Build 0)  -->
<svg version="1.1" id="Layer_1" xmlns:serif="http://www.serif.com/"
	 xmlns="http://www.w3.org/2000/svg" xmlns:xlink="http://www.w3.org/1999/xlink" x="0px" y="0px" viewBox="0 0 3000 3000"
	 style="enable-background:new 0 0 3000 3000;" xml:space="preserve">
<style type="text/css">
	.st0{fill:#FFFFFF;}
</style>
<g>
	<path class="st0" d="M1497.2,0c419.6,0,776.8,146.5,1071.4,439.3c141,141,248.2,302.2,321.4,483.5
		C2963.2,1104,3000,1296.4,3000,1500c0,205.4-36.2,397.8-108.5,577.2c-72.3,179.4-179.1,338-320.1,475.5
		C2425,2697.2,2259,2808,2073.2,2884.8c-185.7,76.8-377.7,115.2-575.9,115.2s-387.9-37.9-569.2-113.9
		c-181.2-75.8-343.7-185.7-487.5-329.4s-253.1-305.8-328.1-486.2S0,1700,0,1500c0-198.2,37.9-388.8,113.8-571.9
		S300,581.2,444.6,436.6C730.3,145.6,1081.2,0,1497.2,0z M1502.7,270.6c-342.8,0-631.3,119.7-865.2,358.9
		c-117.9,119.7-208.5,254-271.9,403.1c-63.5,149.1-95.1,304.9-95.1,467.4c0,160.7,31.6,315.7,95.1,464.7
		c63.4,149.2,154,282.2,271.9,399.2c117.8,117,250.8,206.2,399.1,267.9c148.2,61.6,303.6,92.4,466.1,92.4
		c160.7,0,316.4-31.2,467.5-93.7c150.9-62.6,286.9-152.7,408.4-270.5c233.9-228.6,350.8-515.2,350.8-859.9
		c0-166.1-30.4-323.2-91.1-471.4c-60.6-148.2-149.1-280.3-265-396.5C2132.1,391.1,1842,270.6,1502.7,270.6z M1483.9,1251l-201,104.5
		c-21.5-44.6-47.8-75.9-79-93.8c-31.3-17.8-60.3-26.8-87.1-26.8c-133.9,0-200.9,88.4-200.9,265.2c0,80.3,17,144.6,50.9,192.8
		c33.9,48.2,84,72.4,150,72.4c87.5,0,149.1-42.9,184.9-128.6l184.8,93.8c-39.3,73.3-93.8,130.8-163.4,172.8
		c-69.6,42-146.4,63-230.3,63c-133.9,0-242-41-324.1-123.2c-82.1-82.1-123.2-196.4-123.2-342.8c0-142.9,41.5-256.2,124.5-340.2
		c83-83.9,187.9-125.9,314.8-125.9C1270.5,1034,1403.5,1106.3,1483.9,1251z M2349,1251l-198.2,104.5c-21.4-44.6-47.8-75.9-79-93.8
		c-31.3-17.8-61.3-26.8-89.7-26.8c-133.9,0-201,88.4-201,265.2c0,80.3,17,144.6,50.9,192.8c33.9,48.2,83.9,72.4,150,72.4
		c87.4,0,149.1-42.9,184.7-128.6l187.5,93.8c-41,73.3-96.4,130.8-166,172.8c-69.7,42-145.5,63-227.7,63
		c-135.8,0-244.2-41-325.4-123.2c-81.4-82.1-122-196.4-122-342.8c0-142.9,41.5-256.2,124.6-340.2c83-83.9,187.9-125.9,314.7-125.9
		C2138.3,1034,2270.5,1106.3,2349,1251z"/>
</g>
</svg>
