<?xml version="1.0" encoding="UTF-8"?>
<svg enable-background="new 0 0 24 24" version="1.1" viewBox="0 0 24 24" xml:space="preserve" xmlns="http://www.w3.org/2000/svg">
<style type="text/css">
	.st0{fill:#f3e9e1;}
</style>
<path class="st0" d="m19.5 7.5c-2.2712 0-4.1303 1.6884-4.437 3.875h-2.438v-2.438c2.1866-0.3067 3.875-2.1658 3.875-4.437 0-2.4853-2.0147-4.5-4.5-4.5s-4.5 2.0147-4.5 4.5c0 2.2712 1.6884 4.1303 3.875 4.437v2.438h-2.438c-0.3067-2.1866-2.1658-3.875-4.437-3.875-2.4853 0-4.5 2.0147-4.5 4.5s2.0147 4.5 4.5 4.5c2.2712 0 4.1303-1.6884 4.437-3.875h2.438v2.438c-2.1866 0.3067-3.875 2.1658-3.875 4.437 0 2.4853 2.0147 4.5 4.5 4.5s4.5-2.0147 4.5-4.5c0-2.2712-1.6884-4.1303-3.875-4.437v-2.438h2.438c0.3067 2.1866 2.1658 3.875 4.437 3.875 2.4853 0 4.5-2.0147 4.5-4.5s-2.0147-4.5-4.5-4.5zm-10.75-3c0-1.792 1.458-3.25 3.25-3.25s3.25 1.458 3.25 3.25-1.458 3.25-3.25 3.25-3.25-1.458-3.25-3.25zm-4.25 10.75c-1.792 0-3.25-1.458-3.25-3.25s1.458-3.25 3.25-3.25 3.25 1.458 3.25 3.25-1.458 3.25-3.25 3.25zm10.75 4.25c0 1.792-1.458 3.25-3.25 3.25s-3.25-1.458-3.25-3.25 1.458-3.25 3.25-3.25 3.25 1.458 3.25 3.25zm4.25-4.25c-1.792 0-3.25-1.458-3.25-3.25s1.458-3.25 3.25-3.25 3.25 1.458 3.25 3.25-1.458 3.25-3.25 3.25z"/>
</svg>
