<?xml version="1.0" encoding="UTF-8" standalone="no"?>
<!DOCTYPE svg PUBLIC "-//W3C//DTD SVG 1.1//EN" "http://www.w3.org/Graphics/SVG/1.1/DTD/svg11.dtd">
<svg width="100%" height="100%" viewBox="0 0 24 24" version="1.1" xmlns="http://www.w3.org/2000/svg" xmlns:xlink="http://www.w3.org/1999/xlink" xml:space="preserve" xmlns:serif="http://www.serif.com/" style="fill-rule:evenodd;clip-rule:evenodd;stroke-linecap:round;stroke-linejoin:round;stroke-miterlimit:1.5;">
    <g transform="matrix(1,0,0,1,-59,0)">
        <g id="eye" transform="matrix(1,0,0,1,31.5767,0)">
            <rect x="27.423" y="0" width="24" height="24" style="fill:none;"/>
            <g transform="matrix(0.923737,0,0,0.908403,28.5325,1.09916)">
                <circle cx="12" cy="12" r="4.544" style="fill:rgb(36,30,26);"/>
            </g>
            <g transform="matrix(1.01688,0,0,1,27.4148,0)">
                <path d="M12,3.05C16.389,2.994 17.76,5.814 18.541,7.872C20.235,12.331 22.972,10.768 22.994,12C23.03,14.062 20.31,11.63 18.582,16.128C17.636,18.591 17.253,21.134 12,21.139C7.264,21.143 6.049,18.425 5.25,16.128C3.92,12.309 0.71,13.87 0.625,12C0.552,10.384 4.016,12.139 5.144,7.872C5.659,5.923 7.424,3.107 12,3.05Z" style="fill:none;stroke:rgb(36,30,26);stroke-width:1.19px;"/>
            </g>
            <g transform="matrix(0.923737,0,0,0.908403,28.5325,1.09916)">
                <circle cx="12" cy="12" r="4.544" style="fill:none;stroke:rgb(36,30,26);stroke-width:1.31px;"/>
            </g>
        </g>
    </g>
</svg>
