<?xml version="1.0" encoding="UTF-8" standalone="no"?>
<!DOCTYPE svg PUBLIC "-//W3C//DTD SVG 1.1//EN" "http://www.w3.org/Graphics/SVG/1.1/DTD/svg11.dtd">
<svg width="100%" height="100%" viewBox="0 0 24 24" version="1.1" xmlns="http://www.w3.org/2000/svg" xmlns:xlink="http://www.w3.org/1999/xlink" xml:space="preserve" xmlns:serif="http://www.serif.com/" style="fill-rule:evenodd;clip-rule:evenodd;stroke-linecap:round;stroke-linejoin:round;stroke-miterlimit:1.5;">
    <g transform="matrix(1,0,0,1,-34,0)">
        <g id="hand" transform="matrix(1.70151,0,0,1,-12.2259,0)">
            <rect x="27.168" y="0" width="14.105" height="24" style="fill:none;"/>
            <g transform="matrix(0.587712,0,0,1,27.1687,0)">
                <path d="M14.461,9.452L13.437,9.391C13.437,9.391 13.44,12.062 12.837,12.09C12.235,12.118 11.536,8.62 11.536,8.62C11.536,8.62 10.781,11.992 10.197,12C9.613,12.008 8.776,8.312 8.776,8.312C8.776,8.312 8.051,12.719 7.544,12.463C7.038,12.207 5.97,8.744 5.97,8.744C5.97,8.744 4.09,21.487 10.197,22.233C10.486,13.494 15.824,14.028 15.824,14.028C14.31,12.097 14.461,9.452 14.461,9.452Z" style="fill:rgb(36,30,26);"/>
            </g>
            <g transform="matrix(0.587712,0,0,1,27.1687,0)">
                <path d="M12,22.39C7.501,22.404 5.843,19.554 5.67,14.362C5.497,9.17 5.259,5.354 5.832,5.371C6.404,5.388 6.374,12.508 7.544,12.463C8.659,12.421 8,3.345 8.723,3.175C9.446,3.004 8.96,12.443 10.197,12.392C11.327,12.346 10.756,1.767 11.397,1.783C12.037,1.8 11.511,12.198 12.648,12.203C13.711,12.207 13.652,2.374 14.344,2.357C15.035,2.34 13.448,14.113 15.824,14.028C18.201,13.943 17.707,8.188 18.938,7.251C18.989,11.909 20.71,22.711 12,22.39" style="fill:none;stroke:rgb(36,30,26);stroke-width:1.2px;"/>
            </g>
            <g transform="matrix(0.587712,0,0,1,27.1687,0)">
                <path d="M15.823,14.028C15.823,14.028 9.345,14.194 10.291,22.233" style="fill:none;stroke:rgb(36,30,26);stroke-width:1.2px;"/>
            </g>
        </g>
    </g>
</svg>
