<svg clip-rule="evenodd" fill-rule="evenodd" stroke-linejoin="round" stroke-miterlimit="2" viewBox="0 0 320 320" xmlns="http://www.w3.org/2000/svg"><path d="m0 0h319.99968v319.99968h-319.99968z" fill="none" stroke-width=".296296"/><g transform="matrix(.3257626372 0 0 .3257626372 -15.932132216 -16.0592728296)"><path d="m510.76 84.303c-74.147-2.696-152.066 9.281-263.274 80.784-87.588 56.315-178.628 187.19-181.243 374.913-4.181 300.148 248.373 457.96 466.486 465.77 169.972 6.09 341.595-77.957 410.433-195.819 54.125-92.671 85.398-165.557 66.548-339.159-12.922-118.959-94.38-215.573-191.488-283.855-91.424-64.284-219.291-99.428-307.462-102.634z" fill="#241e1a"/><path d="m332.804 573.35c-6.606 14.768-18.183 25.2-36.789 24.836-26.346-.516-45.946-20.512-45.946-44.855s19.258-48.375 45.339-48.142c19.196.171 36.91 14.111 42.129 31.711 21.51-1.091 55.377-1.381 94.655-1.357.343-33.482.771-63.273 1.065-82.154-18.061-7.323-29.85-23.733-29.436-46.799.543-30.261 24.58-49.325 52.481-47.648 28.636 1.722 44.381 23.98 44.644 49.658.216 21.113-9.78 41.594-31.703 47.418-1.361 22.582-2.106 50.475-2.458 79.61 41.992.162 87.456.501 129.345.521l.107-.149c-1.285-36.169-2.363-72.298-3-94.66-20.988-7.815-32.954-26.22-32.502-45.978.586-25.581 17.838-48.891 49.189-48.709 37.013.214 52.027 27.493 51.523 47.058-.42 16.332-9.697 42.011-32.34 49.47.919 21.923 2.421 56.473 4.214 92.833l.052.049c14.467-.082 28.146-.229 40.68-.466 103.589 1.051 126.801 71.666 126.348 105.332-.266 19.811-2.87 45.694-9.368 62.162-12.667 32.107-57.62 63.639-83.163 62.339-94.483 6.362-101.842-81.115-106.016-117.643-1.367-11.959-2.829-40.621-4.177-73.767l-.123-.121c-43.072-.814-89.118-1.118-131.022-1.167-.122 58.177.923 114.519 1.418 137.678 17.791 7.217 31.235 24.831 30.511 43.567-.978 25.313-17.127 45.739-45.046 45.202-27.919-.536-44.778-20.934-47.957-42.767-2.314-15.886 3.148-38.303 26.967-46.422-.956-33.666-.927-86.587-.561-137.243-44.764.088-81.381.417-99.06.603zm279.983-194.813c-20.643 1.033-25.508 34.584-1.172 35.868 24.337 1.285 23.212-36.971 1.172-35.868zm-160.407 9.559c-20.214.326-26.177 39.203 0 38.485 27.08-.742 21.755-38.837 0-38.485zm182.812 184.351c.967 18.011 1.982 35.585 3.008 51.408 1.357 74.286 19.792 103.712 61.413 104.502 43.524-3.66 64.943-38.857 64.682-84.315-.241-42.008-31.141-70.382-87.432-72.426-7.481-.276-23.408-.063-41.592.749zm-188.092 165.659c-23.627 3.259-18.253 41.146 5.729 35.305 22.004-5.359 17.396-38.494-5.729-35.305zm-153.36-202.191c-23.372.061-22.28 34.912-.189 35.389 22.092.478 23.139-35.449.189-35.389zm449.154-122.256c33.489.064 42.603 32.819 42.903 43.998s-9.924 42.185-38.757 42.02c-28.834-.166-44.106-25.235-44.106-42.02s9.484-44.056 39.96-43.998zm1.603 26.564c-18.88.175-24.602 33.818-.332 35.059 21.553 1.101 21.543-35.257.332-35.059zm-383.826-242.907s2.479-.274 3.002 2.308c-.417 2.285-15.116 27.118-29.01 49 8.022.491 38.052 6.083 41.092 6.101 3.124.153 3.857 5.251 1.422 6.105-58.736 20.593-228.82 138.925-211.391 303.379 28.516 269.077 299.64 328.548 390.05 323.777 116.517.44 330.555-98.885 358.039-315.729 21.003-211.675-211.532-312.077-211.532-312.077s-1.977-2.357 1.09-5.318c2.156-.83 24.206-3.47 46.941-4.612-10.912-17.082-28.269-44.416-28.333-46.236 1.832-2.447 1.686-3.045 6.878-3.365 313.351 153.229 274.391 426.412 176.566 567.88-95.242 125.097-234.719 186.888-330.396 185.029-344.78 2.934-505.726-265.669-464.552-475.781 41.173-210.113 250.134-280.461 250.134-280.461zm-66.032 53.946c-13.6 9.164 1.857 33.838 15.531 21.681 17.104-15.204-6.157-27.998-15.531-21.681zm494.595 4.987c-12.813-12.336-34.157 9.62-16.706 21.529 15.049 10.27 27.655-10.988 16.706-21.529zm-249.139-126.438c90.009-1.222 93.144 63.593 157.359 97.667-64.821 11.728-71.694 70.54-157.359 71.705-75.568 1.027-85.604-58.623-155.645-69.588 70.751-46.392 70.811-98.632 155.645-99.784zm-.043 40.071c-34.89-1.844-65.559 18.963-63.379 44.742 1.871 22.118 20.907 42.119 63.379 44.371 34.89 1.85 63.826-18.545 63.379-44.371-.511-29.585-22.091-42.56-63.379-44.742z" fill="#c2b7ac"/></g></svg>