<svg clip-rule="evenodd" fill-rule="evenodd" stroke-linejoin="round" stroke-miterlimit="2" viewBox="0 0 320 320" xmlns="http://www.w3.org/2000/svg"><g transform="scale(.296296)"><path d="m0 0h1080v1080h-1080z" fill="none"/><path d="m553.436 41.132c-315.621-10.118-523.298 181.808-524.844 498.868-1.507 308.98 226.695 495.65 510.511 507.14 220.439 8.92 553.887-109.312 513.837-582.614-16.7-197.296-246.852-415.294-499.504-423.394z" fill="#f3e9e1"/><path d="m510.76 84.303c88.171 3.206 216.038 38.35 307.462 102.634 97.108 68.282 178.566 164.896 191.488 283.855 18.85 173.602-12.423 246.488-66.548 339.159-68.838 117.862-240.461 201.909-410.433 195.819-218.113-7.81-470.667-165.622-466.486-465.77 2.615-187.723 93.655-318.598 181.243-374.913 111.208-71.503 189.127-83.48 263.274-80.784zm-84.452 143.498s-10.196 14.053-9.251 22.845l38.953 11.269-30.956 22.548s7.835 15.259 15.043 16.851l25.052-26.625-.052 36.718s13.754.906 22.71-2.225l-8.298-38.379 32.734 18.336s8.711-10.092 10.561-20.795l-39.193-11.325 34.315-24.804s-7.094-12.471-15.316-17.436l-25.489 28.061.006-39.751s-13.934-1.193-24.598 2.135l8.98 41.914zm79.738-100.908s-11.054 8.931-13.191 17.773l32.383 15.608-35.263 15.461s4.456 13.466 10.232 20.078l30.125-22.613-3.37 33.547s15.127 2.312 26.281-.836l-4.988-29.848 23.062 18.797s11.564-10.583 13.439-20.266l-29.717-14.39s21.196-9.733 33.192-14.753c-2.69-8.301-13.486-19.703-13.486-19.703l-29.078 21.443s2.085-25.132 3.183-35.984c-12.252-2.29-21.399-.028-21.399-.028l3.758 35.605zm56.948 92.205s-8.468 9.262-9.558 20.228l44.717 15.459-36.441 25.109s6.057 13.584 14.89 18.055l27.043-27.288-1.581 36.606s14.954 1.935 23.578-1.338l-6.661-39.928 33.394 19.765s7.924-11.207 10.044-22.207l-37.242-12.625 31.231-21.744s-7.321-11.946-13.847-16.281l-25.478 26.357 1.656-37.447s-12.319-2.18-22.543.078l6.714 40.348zm-230.19 354.252c17.679-.186 54.296-.515 99.06-.603-.366 50.656-.395 103.577.561 137.243-23.819 8.119-29.281 30.536-26.967 46.422 3.179 21.833 20.038 42.231 47.957 42.767 27.919.537 44.068-19.889 45.046-45.202.724-18.736-12.72-36.35-30.511-43.567-.495-23.159-1.54-79.501-1.418-137.678 41.904.049 87.95.353 131.022 1.167l.123.121c1.348 33.146 2.81 61.808 4.177 73.767 4.174 36.528 11.533 124.005 106.016 117.643 25.543 1.3 70.496-30.232 83.163-62.339 6.498-16.468 9.102-42.351 9.368-62.162.453-33.666-22.759-104.281-126.348-105.332-12.534.237-26.213.384-40.68.466l-.052-.049c-1.793-36.36-3.295-70.91-4.214-92.833 22.643-7.459 31.92-33.138 32.34-49.47.504-19.565-14.51-46.844-51.523-47.058-31.351-.182-48.603 23.128-49.189 48.709-.452 19.758 11.514 38.163 32.502 45.978.637 22.362 1.715 58.491 3 94.66l-.107.149c-41.889-.02-87.353-.359-129.345-.521.352-29.135 1.097-57.028 2.458-79.61 21.923-5.824 31.919-26.305 31.703-47.418-.263-25.678-16.008-47.936-44.644-49.658-27.901-1.677-51.938 17.387-52.481 47.648-.414 23.066 11.375 39.476 29.436 46.799-.294 18.881-.722 48.672-1.065 82.154-39.278-.024-73.145.266-94.655 1.357-5.219-17.6-22.933-31.54-42.129-31.711-26.081-.233-45.339 23.799-45.339 48.142s19.6 44.339 45.946 44.855c18.606.364 30.183-10.068 36.789-24.836zm279.983-194.813c22.04-1.103 23.165 37.153-1.172 35.868-24.336-1.284-19.471-34.835 1.172-35.868zm-160.407 9.559c21.755-.352 27.08 37.743 0 38.485-26.177.718-20.214-38.159 0-38.485zm182.812 184.351.079-.082c18.184-.812 34.111-1.025 41.592-.749 56.291 2.044 87.191 30.418 87.432 72.426.261 45.458-21.158 80.655-64.682 84.315-41.621-.79-60.056-30.216-61.413-104.502-1.026-15.823-2.041-33.397-3.008-51.408zm-188.092 165.659c23.125-3.189 27.733 29.946 5.729 35.305-23.982 5.841-29.356-32.046-5.729-35.305zm-153.36-202.191c22.95-.06 21.903 35.867-.189 35.389-22.091-.477-23.183-35.328.189-35.389zm449.154-122.256c-30.476-.058-39.96 27.213-39.96 43.998s15.272 41.854 44.106 42.02c28.833.165 39.057-30.841 38.757-42.02s-9.414-43.934-42.903-43.998zm1.603 26.564c21.211-.198 21.221 36.16-.332 35.059-24.27-1.241-18.548-34.884.332-35.059zm-383.826-242.907s-208.961 70.348-250.134 280.461c-41.174 210.112 119.772 478.715 464.552 475.781 95.677 1.859 235.154-59.932 330.396-185.029 97.825-141.468 136.785-414.651-176.566-567.88-5.192.32-5.046.918-6.878 3.365.064 1.82 17.421 29.154 28.333 46.236-22.735 1.142-44.785 3.782-46.941 4.612-3.067 2.961-1.09 5.318-1.09 5.318s232.535 100.402 211.532 312.077c-27.484 216.844-241.522 316.169-358.039 315.729-90.41 4.771-361.534-54.7-390.05-323.777-17.429-164.454 152.655-282.786 211.391-303.379 2.435-.854 1.702-5.952-1.422-6.105-3.04-.018-33.07-5.61-41.092-6.101 13.894-21.882 28.593-46.715 29.01-49-.523-2.582-3.002-2.308-3.002-2.308zm428.563 58.933c10.949 10.541-1.657 31.799-16.706 21.529-17.451-11.909 3.893-33.865 16.706-21.529zm-494.595-4.987c9.374-6.317 32.635 6.477 15.531 21.681-13.674 12.157-29.131-12.517-15.531-21.681z" fill="#241e1a"/></g></svg>