<?xml version="1.0" encoding="UTF-8" standalone="no"?>
<!DOCTYPE svg PUBLIC "-//W3C//DTD SVG 1.1//EN" "http://www.w3.org/Graphics/SVG/1.1/DTD/svg11.dtd">
<svg width="100%" height="100%" viewBox="0 0 33 24" version="1.1" xmlns="http://www.w3.org/2000/svg" xmlns:xlink="http://www.w3.org/1999/xlink" xml:space="preserve" xmlns:serif="http://www.serif.com/" style="fill-rule:evenodd;clip-rule:evenodd;stroke-linecap:round;stroke-linejoin:round;stroke-miterlimit:1.5;">
    <g transform="matrix(1,0,0,1,-68,-25)">
        <g id="m3" transform="matrix(1.375,0,0,1,-1.18774,0)">
            <rect x="50.318" y="25" width="24" height="24" style="fill:none;"/>
            <g transform="matrix(1.45454,0,0,2,41.5911,-33.4999)">
                <path d="M12,33.5L12,40.5" style="fill:none;stroke:rgb(243,233,225);stroke-width:0.6px;"/>
            </g>
            <g transform="matrix(0.727273,0,0,1,50.3184,0)">
                <path d="M8.488,37L15.513,37" style="fill:none;stroke:rgb(243,233,225);stroke-width:1.2px;"/>
            </g>
            <g transform="matrix(0.710391,0,0,0.976788,47.3252,0.858858)">
                <circle cx="9.344" cy="37" r="3.583" style="fill:rgb(243,233,225);stroke:rgb(243,233,225);stroke-width:1.23px;"/>
            </g>
            <g transform="matrix(0.710391,0,0,0.976788,57.5071,0.858858)">
                <circle cx="9.344" cy="37" r="3.583" style="fill:rgb(243,233,225);stroke:rgb(243,233,225);stroke-width:1.23px;"/>
            </g>
            <g transform="matrix(0.710391,0,0,0.976788,52.4161,-6.14114)">
                <circle cx="9.344" cy="37" r="3.583" style="fill:rgb(243,233,225);stroke:rgb(243,233,225);stroke-width:1.23px;"/>
            </g>
        </g>
    </g>
</svg>
