<?xml version="1.0" encoding="UTF-8" standalone="no"?>
<!DOCTYPE svg PUBLIC "-//W3C//DTD SVG 1.1//EN" "http://www.w3.org/Graphics/SVG/1.1/DTD/svg11.dtd">
<svg width="100%" height="100%" viewBox="0 0 33 24" version="1.1" xmlns="http://www.w3.org/2000/svg" xmlns:xlink="http://www.w3.org/1999/xlink" xml:space="preserve" xmlns:serif="http://www.serif.com/" style="fill-rule:evenodd;clip-rule:evenodd;stroke-linecap:round;stroke-linejoin:round;stroke-miterlimit:1.5;">
    <g transform="matrix(1,0,0,1,-34,-50)">
        <g id="m5" transform="matrix(1.375,0,0,1,-0.375,0)">
            <rect x="25" y="50" width="24" height="24" style="fill:none;"/>
            <g transform="matrix(1.65905,0,0,2.28119,17.0909,-22.4039)">
                <path d="M8.488,37L15.513,37" style="fill:none;stroke:rgb(36,30,26);stroke-width:0.53px;"/>
            </g>
            <g transform="matrix(0.727273,0,0,1,6.81818,0)">
                <path d="M38.905,57.944L44.12,66.056" style="fill:none;stroke:rgb(36,30,26);stroke-width:1.2px;"/>
            </g>
            <g transform="matrix(0.710391,0,0,0.976788,22.0069,25.8589)">
                <circle cx="9.344" cy="37" r="3.583" style="fill:rgb(36,30,26);stroke:rgb(36,30,26);stroke-width:1.23px;"/>
            </g>
            <g transform="matrix(0.710391,0,0,0.976788,27.0978,18.8589)">
                <circle cx="9.344" cy="37" r="3.583" style="fill:rgb(36,30,26);stroke:rgb(36,30,26);stroke-width:1.23px;"/>
            </g>
            <g transform="matrix(0.710391,0,0,0.976788,33.6441,32.8589)">
                <circle cx="9.344" cy="37" r="3.583" style="fill:rgb(36,30,26);stroke:rgb(36,30,26);stroke-width:1.23px;"/>
            </g>
            <g transform="matrix(0.710391,0,0,0.976788,33.9983,18.8589)">
                <circle cx="9.344" cy="37" r="3.583" style="fill:rgb(36,30,26);stroke:rgb(36,30,26);stroke-width:1.23px;"/>
            </g>
            <g transform="matrix(0.710391,0,0,0.976788,38.735,25.8589)">
                <circle cx="9.344" cy="37" r="3.583" style="fill:rgb(36,30,26);stroke:rgb(36,30,26);stroke-width:1.23px;"/>
            </g>
        </g>
    </g>
</svg>
