<?xml version="1.0" encoding="utf-8"?>
<!-- Generator: Adobe Illustrator 26.1.0, SVG Export Plug-In . SVG Version: 6.00 Build 0)  -->
<svg version="1.1" id="Layer_1" xmlns="http://www.w3.org/2000/svg" xmlns:xlink="http://www.w3.org/1999/xlink" x="0px" y="0px"
	 viewBox="0 0 14 14" style="enable-background:new 0 0 14 14;" xml:space="preserve">
<style type="text/css">
	.st0{fill:#f3e9e1;}
</style>
<path class="st0" d="M10.52307,11.60694c0.31875-0.30402,0.58382-0.65645,0.80614-1.03985l0.01832,0.01058
	c0.08945-0.15478,0.16574-0.31592,0.23636-0.4792c0.00699-0.01605,0.0163-0.03072,0.0231-0.04689
	c0.10386-0.24763,0.17908-0.50507,0.2385-0.76655c0.01511-0.06634,0.02763-0.13275,0.03984-0.20016
	c0.04941-0.27243,0.08359-0.54787,0.08359-0.8266c0-0.27815-0.03418-0.55329-0.08353-0.82546
	c-0.0124-0.06817-0.02505-0.13527-0.04029-0.20237c-0.05929-0.26053-0.13426-0.51703-0.23762-0.7639
	c-0.00781-0.01863-0.01857-0.03544-0.02663-0.05394c-0.06999-0.16114-0.14503-0.32039-0.23334-0.47322L8.01949,0.17561
	l-1.1159,0.64455l1.73943,3.01249C8.22426,3.70801,7.7898,3.62046,7.33112,3.62046c-0.27885,0-0.55215,0.03412-0.82169,0.08309
	c-0.07239,0.01309-0.14345,0.027-0.21471,0.04337C6.03898,3.80603,5.78752,3.87897,5.547,3.9795
	C5.5154,3.99271,5.48681,4.01085,5.45553,4.02475C5.24032,4.12031,5.03487,4.2343,4.83667,4.36107
	C4.7785,4.39847,4.72134,4.4356,4.66502,4.4755c-0.4335,0.30497-0.81375,0.68384-1.1242,1.12584
	C3.50695,5.64956,3.47485,5.69803,3.44274,5.74757c-0.04192,0.06477-0.0897,0.12457-0.12853,0.19179l-3.32804,5.76426
	l1.1169,0.64456L2.8359,9.34645c0.10575,0.43583,0.27771,0.84233,0.49714,1.22063l-0.01832,0.01058
	c0.03852,0.06666,0.08598,0.12602,0.12753,0.19028c0.03248,0.05004,0.06477,0.09914,0.09908,0.14786
	c0.31032,0.44181,0.69051,0.82049,1.12395,1.1254c0.05621,0.03972,0.11318,0.07686,0.17115,0.11412
	c0.19847,0.12696,0.40423,0.24114,0.61982,0.33682c0.03097,0.01378,0.05923,0.03166,0.09058,0.04482
	c0.24058,0.10052,0.49204,0.17354,0.74791,0.23265c0.07125,0.01637,0.14232,0.03028,0.21471,0.04337
	c0.26953,0.04897,0.54284,0.08309,0.82169,0.08309h6.65504v-1.28912C13.98618,11.60694,10.52307,11.60694,10.52307,11.60694z
	 M10.28797,6.72007c0.08938,0.17215,0.16315,0.35086,0.22132,0.53522c0.02253,0.07125,0.04872,0.14075,0.0666,0.21395
	c0.06263,0.25795,0.10392,0.52175,0.10392,0.78902c0,0.26708-0.04129,0.53075-0.10386,0.78864
	c-0.018,0.07371-0.04431,0.14383-0.0671,0.21559c-0.05778,0.18298-0.13118,0.3603-0.21974,0.53151
	c-0.5592,1.07151-1.6683,1.81294-2.95798,1.81294c-0.20306,0-0.39976-0.02518-0.59294-0.05999
	c-0.05231-0.00951-0.10443-0.01958-0.15604-0.03147c-0.18518-0.04261-0.36666-0.09561-0.53875-0.16762
	c-0.02354-0.00982-0.04519-0.02348-0.06848-0.03386c-0.15529-0.06924-0.30346-0.15094-0.44521-0.24202
	c-0.04167-0.02663-0.08284-0.05369-0.12331-0.08214c-0.31617-0.22352-0.59181-0.4989-0.8142-0.81583
	c-0.02291-0.03267-0.04494-0.0659-0.06672-0.09945c-0.34053-0.52421-0.54303-1.1461-0.54303-1.81628
	c0-0.66885,0.20193-1.28949,0.54108-1.81295c0.0231-0.03575,0.04658-0.07113,0.07094-0.10575
	C4.81608,6.0244,5.0904,5.7504,5.40487,5.52783C5.44629,5.49862,5.48865,5.4708,5.53133,5.44355
	c0.14081-0.09039,0.28785-0.1714,0.44194-0.2402c0.02392-0.0107,0.04626-0.0248,0.0705-0.03487
	C6.2158,5.09659,6.39702,5.04365,6.58208,5.00104c0.05167-0.01197,0.10373-0.02198,0.1561-0.03148
	c0.19317-0.03481,0.38988-0.05999,0.59294-0.05999C8.61992,4.90957,9.72838,5.64968,10.28797,6.72007z"/>
</svg>
