<?xml version="1.0" encoding="UTF-8" standalone="no"?>
<!DOCTYPE svg PUBLIC "-//W3C//DTD SVG 1.1//EN" "http://www.w3.org/Graphics/SVG/1.1/DTD/svg11.dtd">
<svg width="100%" height="100%" viewBox="0 0 33 24" version="1.1" xmlns="http://www.w3.org/2000/svg" xmlns:xlink="http://www.w3.org/1999/xlink" xml:space="preserve" xmlns:serif="http://www.serif.com/" style="fill-rule:evenodd;clip-rule:evenodd;stroke-linecap:round;stroke-linejoin:round;stroke-miterlimit:1.5;">
    <g transform="matrix(1,0,0,1,0,-100)">
        <g id="u4" transform="matrix(1.375,0,0,1,0,49.8363)">
            <rect x="0" y="50.164" width="24" height="24" style="fill:none;"/>
            <g transform="matrix(0.727273,0,0,1,0,25.1637)">
                <path d="M12,33.5L12,40.5" style="fill:none;stroke:rgb(36,30,26);stroke-width:1.2px;"/>
            </g>
            <g transform="matrix(0.727273,0,0,1,0,25.1637)">
                <path d="M8.488,37L15.513,37" style="fill:none;stroke:rgb(36,30,26);stroke-width:1.2px;"/>
            </g>
            <g transform="matrix(0.710391,0,0,0.976788,-2.99312,26.0225)">
                <circle cx="9.344" cy="37" r="3.583" style="fill:none;stroke:rgb(36,30,26);stroke-width:1.23px;"/>
            </g>
            <g transform="matrix(0.710391,0,0,0.976788,7.1887,26.0225)">
                <circle cx="9.344" cy="37" r="3.583" style="fill:none;stroke:rgb(36,30,26);stroke-width:1.23px;"/>
            </g>
            <g transform="matrix(0.710391,0,0,0.976788,2.09779,19.0225)">
                <circle cx="9.344" cy="37" r="3.583" style="fill:none;stroke:rgb(36,30,26);stroke-width:1.23px;"/>
            </g>
            <g transform="matrix(0.710391,0,0,0.976788,2.09779,33.0225)">
                <circle cx="9.344" cy="37" r="3.583" style="fill:none;stroke:rgb(36,30,26);stroke-width:1.23px;"/>
            </g>
        </g>
    </g>
</svg>
